<svg width="42" height="48" viewBox="0 0 42 48" fill="none" xmlns="http://www.w3.org/2000/svg">
<path d="M40.2598 39.0676C38.6588 39.4056 37.1246 39.7435 35.5903 40.2167C35.3234 40.2843 32.3216 41.2306 32.3883 40.9602C33.1221 37.6482 33.9226 35.0122 33.589 31.4974C33.2555 28.1179 32.2549 24.7383 30.9207 21.6967C28.3858 16.0191 24.6502 11.0173 19.9806 6.89429C15.9782 3.37955 10.6415 0.0675911 5.17149 0C4.17087 0 -0.765514 0.811093 0.101688 2.83883C0.501934 3.7851 1.56926 3.0416 2.30305 2.90642C3.83733 2.63605 5.3049 2.83882 6.83918 3.24437C18.0461 6.0832 26.518 19.669 28.1857 30.5512C28.6527 33.4576 28.6527 36.4316 27.652 39.2028C27.4519 39.8111 26.7181 42.1092 26.1178 42.1092C25.5174 42.1092 24.2499 38.6621 23.9164 38.0538C22.7157 35.8909 21.4482 32.9169 19.6471 31.2271C18.8466 30.4836 17.846 30.0104 16.9788 30.8891C15.8447 31.903 16.6452 33.2548 17.1122 34.4039C18.4464 37.513 20.3142 40.3519 21.9819 43.3259C23.5162 45.9619 24.5168 48.9359 27.9189 47.7193C31.321 46.5027 34.7231 44.7453 37.9918 43.1907C38.9257 42.7851 41.5273 41.8389 41.9275 40.6222C42.3945 38.7973 40.46 39.8111 40.2598 39.0676C38.859 39.4056 40.3265 39.0676 40.2598 39.0676Z" fill="#979797"/>
</svg>
