<svg width="40" height="40" viewBox="0 0 40 40" fill="none" xmlns="http://www.w3.org/2000/svg">
<path fill-rule="evenodd" clip-rule="evenodd" d="M38.75 20C38.75 30.3553 30.3553 38.75 20 38.75C9.64466 38.75 1.25 30.3553 1.25 20C1.25 9.64466 9.64466 1.25 20 1.25C30.3553 1.25 38.75 9.64466 38.75 20ZM40 20C40 31.0457 31.0457 40 20 40C8.95431 40 0 31.0457 0 20C0 8.95431 8.95431 0 20 0C31.0457 0 40 8.95431 40 20ZM13.1944 15.1389C14.4737 15.1389 15.1389 14.269 15.1389 13.1944C15.1389 12.1711 14.3713 11.25 13.1944 11.25C12.0175 11.25 11.25 12.2222 11.25 13.2968C11.25 14.269 12.0175 15.1389 13.1944 15.1389ZM11.25 16.1111H15.1389V28.75H11.25V16.1111ZM24.5029 16.3158C22.4561 16.3158 21.2792 17.4927 20.8187 18.2603H20.7164L20.5117 16.6229H17.0322C17.0322 17.1215 17.0542 17.6643 17.0778 18.246L17.0778 18.2461C17.1051 18.9179 17.1345 19.6416 17.1345 20.4094V28.75H21.0234V21.8422C21.0234 21.4328 21.0234 21.1769 21.1257 20.8699C21.4327 20.2047 21.8933 19.3348 22.9678 19.3348C24.3494 19.3348 24.9123 20.5117 24.9123 22.0468V28.75H28.8012V21.5863C28.75 17.9533 26.9079 16.3158 24.5029 16.3158Z" fill="#363636"/>
</svg>
