<svg width="32" height="32" viewBox="0 0 32 32" fill="none" xmlns="http://www.w3.org/2000/svg">
<rect x="0.5" y="0.5" width="31" height="31" rx="15.5" fill="white"/>
<path d="M9.89729 12.448C9.91717 12.2624 9.84227 12.079 9.69561 11.9541L8.20168 10.254V10H12.8403L16.4258 17.4286L19.578 10H24V10.254L22.7227 11.4109C22.6126 11.4902 22.5579 11.6206 22.5808 11.7496V20.2504C22.5579 20.3794 22.6126 20.5098 22.7227 20.5891L23.9701 21.746V22H17.6956V21.746L18.9879 20.5608C19.1148 20.4409 19.1148 20.4056 19.1148 20.2222V13.351L15.5219 21.9718H15.0364L10.8534 13.351V19.1287C10.8185 19.3717 10.9039 19.6162 11.085 19.7919L12.7656 21.7178V21.9718H8V21.7178L9.68067 19.7919C9.86039 19.6159 9.94081 19.3697 9.89729 19.1287V12.448Z" fill="#363636"/>
<rect x="0.5" y="0.5" width="31" height="31" rx="15.5" stroke="#C4C4C4"/>
</svg>
