<svg width="32" height="32" viewBox="0 0 32 32" fill="none" xmlns="http://www.w3.org/2000/svg">
<path fill-rule="evenodd" clip-rule="evenodd" d="M31 16C31 24.2843 24.2843 31 16 31C7.7157 31 1 24.2843 1 16C1 7.7157 7.7157 1 16 1C24.2843 1 31 7.7157 31 16ZM32 16C32 24.8365 24.8365 32 16 32C7.16345 32 0 24.8365 0 16C0 7.16345 7.16345 0 16 0C24.8365 0 32 7.16345 32 16ZM9.85645 12.1724C9.89282 12.2587 9.90747 12.3531 9.89734 12.448V19.1287C9.9408 19.3698 9.86035 19.6159 9.68066 19.7919L8 21.7178V21.9718H12.7656V21.7178L11.085 19.7919C10.9039 19.6162 10.8185 19.3716 10.8534 19.1287V13.351L15.0364 21.9718H15.522L19.1149 13.351V20.2222C19.1149 20.4056 19.1149 20.4409 18.9879 20.5609L17.6956 21.746V22H23.9701V21.746L22.7227 20.5891C22.6125 20.5098 22.558 20.3795 22.5808 20.2504V11.7496C22.558 11.6205 22.6125 11.4902 22.7227 11.4109L24 10.254V10H19.578L16.4258 17.4286L12.8403 10H8.20166V10.254L9.69556 11.9542C9.76721 12.0151 9.82166 12.0901 9.85645 12.1724Z" fill="#363636"/>
</svg>
