<svg width="32" height="32" viewBox="0 0 32 32" fill="none" xmlns="http://www.w3.org/2000/svg">
<path fill-rule="evenodd" clip-rule="evenodd" d="M31 16C31 24.2843 24.2843 31 16 31C7.7157 31 1 24.2843 1 16C1 7.7157 7.7157 1 16 1C24.2843 1 31 7.7157 31 16ZM32 16C32 24.8365 24.8365 32 16 32C7.16345 32 0 24.8365 0 16C0 7.16345 7.16345 0 16 0C24.8365 0 32 7.16345 32 16ZM15.9858 13.7438C15.9858 15.5867 14.4706 15.7097 14.4706 15.7097C16.4364 15.7097 16.3135 18.2897 16.3135 18.2897C16.3135 21.484 13.1602 21.3611 13.1602 21.3611H8V11H13.1602C14.7573 11 15.9858 11.9009 15.9858 13.7438ZM13.1602 12.8429H10.2524V15.1363H12.9553C13.4468 15.1363 13.8563 14.9725 13.8563 13.9077C13.8563 12.8429 13.1602 12.8429 13.1602 12.8429ZM10.2524 19.5182H12.9963C13.4059 19.4773 14.184 19.3545 14.2249 18.1668C14.2249 16.7335 13.1602 16.7335 13.1602 16.7335H10.2524V19.5182ZM16.7229 17.5934C16.7229 17.5934 16.7229 13.621 20.5315 13.621C24.5449 13.621 23.9716 18.1258 23.9716 18.1258H18.8115C18.8115 20.0506 20.5725 19.9277 20.5725 19.9277C22.2106 19.9277 22.1697 18.822 22.1697 18.822H23.9307C23.9307 21.7706 20.5315 21.5659 20.5315 21.5659C16.4772 21.5659 16.7229 17.5934 16.7229 17.5934ZM18.8115 16.7334H22.0878C22.0878 16.7334 22.0878 15.1362 20.5725 15.1362C19.0162 15.1362 18.8115 16.7334 18.8115 16.7334ZM22.4973 11.6142H18.402V12.8838H22.4973V11.6142Z" fill="#363636"/>
</svg>
