<svg width="40" height="40" viewBox="0 0 40 40" fill="none" xmlns="http://www.w3.org/2000/svg">
<path fill-rule="evenodd" clip-rule="evenodd" d="M38.75 20C38.75 30.3553 30.3553 38.75 20 38.75C9.64466 38.75 1.25 30.3553 1.25 20C1.25 9.64466 9.64466 1.25 20 1.25C30.3553 1.25 38.75 9.64466 38.75 20ZM40 20C40 31.0457 31.0457 40 20 40C8.95431 40 0 31.0457 0 20C0 8.95431 8.95431 0 20 0C31.0457 0 40 8.95431 40 20ZM19.9824 17.1798C19.9824 19.4834 18.0883 19.637 18.0883 19.637C20.5455 19.637 20.3919 22.8621 20.3919 22.8621C20.3919 26.855 16.4501 26.7015 16.4501 26.7015H10V13.75H16.4501C18.4466 13.75 19.9824 14.8762 19.9824 17.1798ZM16.4501 16.0536H12.8155V18.9204H16.1942C16.8085 18.9204 17.3204 18.7156 17.3204 17.3846C17.3204 16.0536 16.4501 16.0536 16.4501 16.0536ZM12.8155 24.3978H16.2454C16.7573 24.3467 17.7299 24.1931 17.7811 22.7085C17.7811 20.9168 16.4501 20.9168 16.4501 20.9168H12.8155V24.3978ZM20.9036 21.9918C20.9036 21.9918 20.9036 17.0262 25.6644 17.0262C30.6811 17.0262 29.9645 22.6573 29.9645 22.6573H23.5143C23.5143 25.0633 25.7156 24.9097 25.7156 24.9097C27.7632 24.9097 27.712 23.5276 27.712 23.5276H29.9133C29.9133 27.2133 25.6644 26.9574 25.6644 26.9574C20.5964 26.9574 20.9036 21.9918 20.9036 21.9918ZM23.5143 20.9168H27.6097C27.6097 20.9168 27.6097 18.9203 25.7156 18.9203C23.7703 18.9203 23.5143 20.9168 23.5143 20.9168ZM28.1216 14.5177H23.0025V16.1047H28.1216V14.5177Z" fill="#363636"/>
</svg>
