<svg width="32" height="32" viewBox="0 0 32 32" fill="none" xmlns="http://www.w3.org/2000/svg">
<path fill-rule="evenodd" clip-rule="evenodd" d="M31 16C31 24.2843 24.2843 31 16 31C7.71573 31 1 24.2843 1 16C1 7.71573 7.71573 1 16 1C24.2843 1 31 7.71573 31 16ZM32 16C32 24.8366 24.8366 32 16 32C7.16344 32 0 24.8366 0 16C0 7.16344 7.16344 0 16 0C24.8366 0 32 7.16344 32 16ZM10.5556 12.1111C11.5789 12.1111 12.1111 11.4152 12.1111 10.5556C12.1111 9.73684 11.4971 9 10.5556 9C9.61403 9 9 9.77778 9 10.6374C9 11.4152 9.61403 12.1111 10.5556 12.1111ZM9 23V12.8889H12.1111V23H9ZM19.6023 13.0527C17.9649 13.0527 17.0234 13.9942 16.655 14.6082H16.5731L16.4094 13.2983H13.6257C13.6257 13.6972 13.6434 14.1314 13.6623 14.5968L13.6623 14.5969L13.6623 14.5969C13.6841 15.1343 13.7076 15.7133 13.7076 16.3275V23H16.8187V17.4737C16.8187 17.1462 16.8187 16.9415 16.9006 16.6959C17.1462 16.1638 17.5146 15.4679 18.3743 15.4679C19.4795 15.4679 19.9298 16.4094 19.9298 17.6375V23H23.0409V17.269C23 14.3626 21.5263 13.0527 19.6023 13.0527Z" fill="#363636"/>
</svg>
