<svg width="20" height="59" viewBox="0 0 20 59" fill="none" xmlns="http://www.w3.org/2000/svg">
<path d="M3.21359 44.0675C4.15306 45.6716 5.31589 49.9645 6.81156 50.9551C7.13878 50.2212 6.77758 48.6288 6.74815 47.7951C6.7172 46.4639 6.68624 45.1327 6.73602 43.8148C6.70204 41.4885 6.71502 39.1284 6.88944 36.7948C7.06669 33.1769 7.53307 29.5649 7.8248 26.0072C8.19573 21.9651 8.76187 17.9965 9.21353 13.9676C9.48188 11.5665 9.71649 9.11832 9.98484 6.71716C10.1623 5.37861 10.0298 1.62722 11.3316 0.762622C12.6803 -0.135734 12.6981 1.27618 12.7011 2.27128C12.647 4.37595 12.4652 6.50117 12.3774 8.55888C12.1151 12.9502 11.8997 17.3078 11.7182 21.7124C11.5498 26.0362 11.3345 30.3938 11.0384 34.7382C10.735 38.8741 10.0779 43.9054 10.8635 47.9709C11.6693 47.6053 12.3897 45.7339 12.8916 44.9457C13.6679 43.7466 14.4911 42.5136 15.3819 41.3746C16.0115 40.5659 17.0564 39.2449 18.2482 39.8127C19.0965 40.2001 19.242 41.5915 19.0292 42.3855C18.3837 44.5592 15.9299 46.8931 14.7457 48.8129C13.334 51.11 11.9091 53.4878 10.6119 55.845C9.79598 57.2864 8.3622 58.9582 6.70357 57.4437C5.32823 56.2242 4.47813 53.0599 3.82779 51.4617C2.86624 49.2324 2.16007 46.9619 1.32621 44.712C0.134172 41.8648 1.61512 42.4386 3.21359 44.0675C3.36919 44.3831 2.71453 43.5715 3.21359 44.0675Z" fill="#979797"/>
</svg>
