<svg width="145" height="21" viewBox="0 0 145 21" fill="none" xmlns="http://www.w3.org/2000/svg">
<path d="M29.4808 15.0858V4.2367C29.4808 3.95709 29.2576 3.7334 28.9786 3.7334H28.1231C27.8441 3.7334 27.621 3.95709 27.621 4.2367V16.2788C27.621 16.5584 27.8441 16.7821 28.1231 16.7821H34.3349C34.6138 16.7821 34.837 16.5584 34.837 16.2788V15.5704C34.837 15.3094 34.6138 15.0858 34.3349 15.0858H29.4808Z" fill="#363636"/>
<path d="M44.3415 7.83441V8.65461C43.6534 7.77849 42.5561 7.10741 40.9195 7.10741C37.981 7.10741 36.2327 9.58666 36.2327 12.0659C36.2327 14.5265 37.981 17.0058 40.9195 17.0058C42.5561 17.0058 43.6534 16.3347 44.3415 15.4586V16.2788C44.3415 16.5584 44.5647 16.7821 44.8436 16.7821H45.5504C45.8293 16.7821 46.0525 16.5584 46.0525 16.2788V7.83441C46.0525 7.5548 45.8293 7.33111 45.5504 7.33111H44.8436C44.5647 7.33111 44.3415 7.5548 44.3415 7.83441ZM41.0868 15.4026C39.134 15.4026 37.9624 13.9673 37.9624 12.0659C37.9624 10.1459 39.134 8.71054 41.0868 8.71054C43.1698 8.71054 44.3415 10.1832 44.3415 12.0659C44.3415 13.93 43.1698 15.4026 41.0868 15.4026Z" fill="#363636"/>
<path d="M55.499 7.33111C55.2201 7.33111 54.9969 7.5548 54.9969 7.83441V12.7556C54.9969 13.8741 54.2902 15.4026 52.5047 15.4026C50.7379 15.4026 50.1614 14.0791 50.1614 12.7556V7.83441C50.1614 7.5548 49.9382 7.33111 49.6778 7.33111H48.9711C48.6921 7.33111 48.469 7.5548 48.469 7.83441V13.2403C48.469 15.2535 49.9754 17.0058 52.0956 17.0058C53.5276 17.0058 54.4389 16.3161 54.9969 15.4586V16.2788C54.9969 16.5584 55.2201 16.7821 55.499 16.7821H56.2058C56.4661 16.7821 56.6893 16.5584 56.6893 16.2788V7.83441C56.6893 7.5548 56.4661 7.33111 56.2058 7.33111H55.499Z" fill="#363636"/>
<path d="M60.8044 8.97151V7.83441C60.8044 7.5548 60.5812 7.33111 60.3209 7.33111H59.6141C59.3352 7.33111 59.112 7.5548 59.112 7.83441V16.2788C59.112 16.5584 59.3352 16.7821 59.6141 16.7821H60.3209C60.5812 16.7821 60.8044 16.5584 60.8044 16.2788V12.5506C60.8044 10.8729 61.1392 8.85967 63.6127 8.99015C63.7987 8.99015 63.9661 8.84102 63.9661 8.65461V7.44295C63.9661 7.25654 63.7987 7.10741 63.5941 7.12606C62.4968 7.21926 61.3809 7.81577 60.8044 8.97151Z" fill="#363636"/>
<path d="M73.0014 7.83441V8.65461C72.3133 7.77849 71.216 7.10741 69.5793 7.10741C66.6409 7.10741 64.8926 9.58666 64.8926 12.0659C64.8926 14.5265 66.6409 17.0058 69.5793 17.0058C71.216 17.0058 72.3133 16.3347 73.0014 15.4586V16.2788C73.0014 16.5584 73.2246 16.7821 73.5035 16.7821H74.2103C74.4892 16.7821 74.7124 16.5584 74.7124 16.2788V7.83441C74.7124 7.5548 74.4892 7.33111 74.2103 7.33111H73.5035C73.2246 7.33111 73.0014 7.5548 73.0014 7.83441ZM69.7467 15.4026C67.7939 15.4026 66.6223 13.9673 66.6223 12.0659C66.6223 10.1459 67.7939 8.71054 69.7467 8.71054C71.8297 8.71054 73.0014 10.1832 73.0014 12.0659C73.0014 13.93 71.8297 15.4026 69.7467 15.4026Z" fill="#363636"/>
<path d="M84.0944 15.0858V4.2367C84.0944 3.95709 83.8712 3.7334 83.5923 3.7334H82.7368C82.4578 3.7334 82.2346 3.95709 82.2346 4.2367V16.2788C82.2346 16.5584 82.4578 16.7821 82.7368 16.7821H88.9485C89.2275 16.7821 89.4507 16.5584 89.4507 16.2788V15.5704C89.4507 15.3094 89.2275 15.0858 88.9485 15.0858H84.0944Z" fill="#363636"/>
<path d="M98.9551 7.83441V8.65461C98.267 7.77849 97.1697 7.10741 95.5331 7.10741C92.5946 7.10741 90.8464 9.58666 90.8464 12.0659C90.8464 14.5265 92.5946 17.0058 95.5331 17.0058C97.1697 17.0058 98.267 16.3347 98.9551 15.4586V16.2788C98.9551 16.5584 99.1783 16.7821 99.4573 16.7821H100.164C100.443 16.7821 100.666 16.5584 100.666 16.2788V7.83441C100.666 7.5548 100.443 7.33111 100.164 7.33111H99.4573C99.1783 7.33111 98.9551 7.5548 98.9551 7.83441ZM95.7005 15.4026C93.7477 15.4026 92.576 13.9673 92.576 12.0659C92.576 10.1459 93.7477 8.71054 95.7005 8.71054C97.7835 8.71054 98.9551 10.1832 98.9551 12.0659C98.9551 13.93 97.7835 15.4026 95.7005 15.4026Z" fill="#363636"/>
<path d="M104.775 8.97151V7.83441C104.775 7.5548 104.552 7.33111 104.291 7.33111H103.585C103.306 7.33111 103.083 7.5548 103.083 7.83441V16.2788C103.083 16.5584 103.306 16.7821 103.585 16.7821H104.291C104.552 16.7821 104.775 16.5584 104.775 16.2788V12.5506C104.775 10.8729 105.11 8.85967 107.583 8.99015C107.769 8.99015 107.937 8.84102 107.937 8.65461V7.44295C107.937 7.25654 107.769 7.10741 107.565 7.12606C106.467 7.21926 105.352 7.81577 104.775 8.97151Z" fill="#363636"/>
<path d="M111.477 8.97151V7.83441C111.477 7.5548 111.254 7.33111 110.993 7.33111H110.287C110.008 7.33111 109.784 7.5548 109.784 7.83441V16.2788C109.784 16.5584 110.008 16.7821 110.287 16.7821H110.993C111.254 16.7821 111.477 16.5584 111.477 16.2788V12.5506C111.477 10.8729 111.812 8.85967 114.285 8.99015C114.471 8.99015 114.639 8.84102 114.639 8.65461V7.44295C114.639 7.25654 114.471 7.10741 114.267 7.12606C113.169 7.21926 112.053 7.81577 111.477 8.97151Z" fill="#363636"/>
<path d="M120.512 7.10741C117.667 7.10741 115.565 9.34433 115.565 12.0659C115.565 14.7875 117.667 17.0244 120.512 17.0244C123.358 17.0244 125.459 14.7875 125.459 12.0659C125.459 9.34433 123.358 7.10741 120.512 7.10741ZM120.512 15.4026C118.652 15.4026 117.313 13.9859 117.313 12.0659C117.313 10.1273 118.652 8.71054 120.512 8.71054C122.372 8.71054 123.73 10.1273 123.73 12.0659C123.73 13.9859 122.372 15.4026 120.512 15.4026Z" fill="#363636"/>
<path d="M130.9 11.3016C129.822 11.0779 128.538 11.0034 128.538 9.94084C128.538 9.15792 129.208 8.61733 130.138 8.61733C130.993 8.61733 131.533 8.99015 131.793 9.40025C131.905 9.58666 132.128 9.66123 132.332 9.6053L133.002 9.41889C133.299 9.34433 133.448 8.99015 133.299 8.71054C132.779 7.68528 131.607 7.10741 130.305 7.10741C128.241 7.10741 126.809 8.33772 126.809 10.0713C126.809 11.4508 127.59 12.3082 129.338 12.7183C130.659 13.0166 132.239 12.998 132.239 14.1164C132.239 14.9553 131.551 15.4586 130.324 15.4586C129.134 15.4586 128.557 15.0485 128.297 14.6384C128.166 14.452 127.943 14.3588 127.72 14.4333L126.976 14.6943C126.697 14.7875 126.548 15.123 126.697 15.4026C127.292 16.4465 128.669 17.0058 130.287 17.0058C132.779 17.0058 133.988 15.6077 133.988 13.9487C133.988 12.5133 133.206 11.7863 130.9 11.3016Z" fill="#363636"/>
<path d="M143.289 7.83441V8.65461C142.601 7.77849 141.504 7.10741 139.867 7.10741C136.928 7.10741 135.18 9.58666 135.18 12.0659C135.18 14.5265 136.928 17.0058 139.867 17.0058C141.504 17.0058 142.601 16.3347 143.289 15.4586V16.2788C143.289 16.5584 143.512 16.7821 143.791 16.7821H144.498C144.777 16.7821 145 16.5584 145 16.2788V7.83441C145 7.5548 144.777 7.33111 144.498 7.33111H143.791C143.512 7.33111 143.289 7.5548 143.289 7.83441ZM140.034 15.4026C138.082 15.4026 136.91 13.9673 136.91 12.0659C136.91 10.1459 138.082 8.71054 140.034 8.71054C142.117 8.71054 143.289 10.1832 143.289 12.0659C143.289 13.93 142.117 15.4026 140.034 15.4026Z" fill="#363636"/>
<path fill-rule="evenodd" clip-rule="evenodd" d="M20.7294 10.3647C20.7294 16.089 16.089 20.7294 10.3647 20.7294C4.64044 20.7294 0 16.089 0 10.3647C0 4.64044 4.64044 0 10.3647 0C16.089 0 20.7294 4.64044 20.7294 10.3647ZM13.6672 14.6314C14.0105 14.7949 14.2884 14.8767 14.5173 14.893C14.8933 14.9093 15.1712 14.893 15.3183 14.844V16.397H15.1385C15.129 16.3947 15.1037 16.3913 15.0645 16.386C14.833 16.3548 14.1158 16.2584 13.2911 15.9229C13.2421 15.8085 13.2585 15.6287 13.3075 15.5306C13.3368 15.4572 13.3793 15.4365 13.435 15.4094C13.4414 15.4063 13.4479 15.4031 13.4546 15.3998H13.4383C13.2258 15.4652 12.9805 15.5796 12.7844 15.7104C12.441 15.5306 12.0814 15.3017 11.7544 15.0074C11.5256 15.0565 11.264 15.0728 11.0351 15.0565C11.0522 15.0531 11.0678 15.0504 11.0828 15.0478C11.1395 15.038 11.1864 15.0299 11.264 14.9911C11.3457 14.9257 11.4111 14.7949 11.4275 14.6641C11.4029 14.6396 11.3784 14.611 11.3539 14.5824C11.3294 14.5538 11.3049 14.5252 11.2803 14.5006C10.888 14.0592 10.6101 13.5361 10.4139 12.9476C10.561 12.7677 10.6918 12.5716 10.7899 12.3754C10.7408 12.4408 10.7081 12.4735 10.6264 12.5062C10.5447 12.5389 10.3975 12.5225 10.2831 12.4735C10.1196 11.7705 10.0706 10.9695 10.1523 10.103C10.8716 10.1847 11.5419 9.6943 11.689 8.95863C11.9833 7.40556 10.9697 5.90154 9.43299 5.60727L8.8935 8.4028C8.81176 8.76246 8.8935 9.15481 9.10603 9.46543C9.26951 9.71065 9.49838 9.90682 9.7763 10.0049C9.69456 10.7242 9.71091 11.4109 9.809 12.0321H8.22323V16.6096H6.42494V4.11959H9.97248C12.3266 4.11959 13.847 4.80621 14.5173 6.21215C14.7625 6.71894 14.8933 7.29112 14.8933 7.94505C14.8933 8.58263 14.8115 9.12211 14.6317 9.56351C14.4682 10.0049 14.2393 10.3973 13.9287 10.7079C13.3402 11.3291 12.5391 11.7215 11.5092 11.9176C11.9343 13.2255 12.6536 14.141 13.6672 14.6314ZM10.6754 5.80345C10.6101 5.80345 10.561 5.80345 10.4956 5.81979C10.6918 5.95058 10.8716 6.09771 11.0515 6.27754C11.1277 6.25574 11.204 6.24848 11.2803 6.24121C11.3185 6.23758 11.3566 6.23395 11.3948 6.2285C11.2967 6.06502 11.1659 5.93423 10.9861 5.86884C10.888 5.81979 10.7735 5.80345 10.6754 5.80345ZM12.1468 6.44102C11.8198 6.37563 11.4929 6.37563 11.1822 6.42467C11.5419 6.84973 11.7708 7.35652 11.8689 7.89601L12.1468 6.44102Z" fill="#363636"/>
</svg>
