<svg width="110" height="40" viewBox="0 0 110 40" fill="none" xmlns="http://www.w3.org/2000/svg">
<rect x="0.5" y="0.5" width="109" height="39" rx="19.5" fill="white"/>
<path fill-rule="evenodd" clip-rule="evenodd" d="M28 12C26.3 12 25 13.3 25 15V17H31V15C31 13.3 29.7 12 28 12ZM33 17C34.7 17 36 18.3 36 20V27C36 28.7 34.7 30 33 30H23C21.3 30 20 28.7 20 27V20C20 18.3 21.3 17 23 17V15C23 12.2 25.2 10 28 10C30.8 10 33 12.2 33 15V17ZM29 25V23.6C29.3 23.3 29.5 22.9 29.5 22.5C29.5 21.7 28.8 21 28 21C27.2 21 26.5 21.7 26.5 22.5C26.5 22.9 26.7 23.3 27 23.6V25C27 25.6 27.4 26 28 26C28.6 26 29 25.6 29 25Z" fill="#979797"/>
<path d="M49.494 26H58.728V23.624H52.41V13.4H49.494V26ZM64.697 26.144C67.775 26.144 70.007 24.074 70.007 21.158C70.007 18.242 67.775 16.172 64.697 16.172C61.619 16.172 59.369 18.242 59.369 21.158C59.369 24.074 61.619 26.144 64.697 26.144ZM64.697 23.84C63.293 23.84 62.213 22.832 62.213 21.158C62.213 19.484 63.293 18.476 64.697 18.476C66.101 18.476 67.163 19.484 67.163 21.158C67.163 22.832 66.101 23.84 64.697 23.84ZM76.5639 26.144C78.5979 26.144 80.1999 25.244 80.9019 23.696L78.7239 22.508C78.2019 23.444 77.4279 23.84 76.5459 23.84C75.1239 23.84 74.0079 22.85 74.0079 21.158C74.0079 19.466 75.1239 18.476 76.5459 18.476C77.4279 18.476 78.2019 18.89 78.7239 19.808L80.9019 18.638C80.1999 17.054 78.5979 16.172 76.5639 16.172C73.4139 16.172 71.1639 18.242 71.1639 21.158C71.1639 24.074 73.4139 26.144 76.5639 26.144ZM89.6663 26H93.0683L88.6763 20.42L92.7083 16.316H89.3603L85.2563 20.204V12.644H82.4483V26H85.2563V23.534L86.6063 22.202L89.6663 26Z" fill="#979797"/>
<rect x="0.5" y="0.5" width="109" height="39" rx="19.5" stroke="#C4C4C4"/>
</svg>
