<svg width="40" height="40" viewBox="0 0 40 40" fill="none" xmlns="http://www.w3.org/2000/svg">
<path fill-rule="evenodd" clip-rule="evenodd" d="M38.75 20C38.75 30.3553 30.3553 38.75 20 38.75C9.64466 38.75 1.25 30.3553 1.25 20C1.25 9.64466 9.64466 1.25 20 1.25C30.3553 1.25 38.75 9.64466 38.75 20ZM40 20C40 31.0457 31.0457 40 20 40C8.95431 40 0 31.0457 0 20C0 8.95431 8.95431 0 20 0C31.0457 0 40 8.95431 40 20ZM12.1195 14.9427C12.3028 15.0988 12.3965 15.328 12.3716 15.56V23.9109C12.426 24.2122 12.3255 24.5199 12.1008 24.7399L10 27.1473V27.4647H15.957V27.1473L13.8562 24.7399C13.6299 24.5203 13.5232 24.2146 13.5668 23.9109V16.6887L18.7955 27.4647H19.4024L23.8936 16.6887V25.2778C23.8936 25.5071 23.8936 25.5511 23.7348 25.7011L22.1195 27.1825V27.5H29.9627V27.1825L28.4034 25.7363C28.2657 25.6372 28.1974 25.4743 28.226 25.3131V14.6869C28.1974 14.5257 28.2657 14.3628 28.4034 14.2637L30 12.8175V12.5H24.4725L20.5322 21.7857L16.0504 12.5H10.2521V12.8175L12.1195 14.9427Z" fill="#363636"/>
</svg>
